<?xml version="1.0" encoding="utf-8"?>
<!-- Generator: Adobe Illustrator 16.0.3, SVG Export Plug-In . SVG Version: 6.00 Build 0)  -->
<!DOCTYPE svg PUBLIC "-//W3C//DTD SVG 1.1//EN" "http://www.w3.org/Graphics/SVG/1.1/DTD/svg11.dtd">
<svg version="1.1" id="Layer_1" xmlns="http://www.w3.org/2000/svg" xmlns:xlink="http://www.w3.org/1999/xlink" x="0px" y="0px"
	 width="640px" height="83.5px" viewBox="0 0 640 83.5" enable-background="new 0 0 640 83.5" xml:space="preserve">
<title>black divider no background</title>
<g>
	<title>Layer 1</title>
	<path id="path2383" fill="#FFFFFF" d="M139.425,44.484c5.347-7.567,3.673-18.679-0.898-21.885
		c-8.063-5.856-16.876,6.366-12.837,18.527c4.031,12.517,14.122,21.268,27.859,23.77c29.804,5.266,88.754-27.178,126.14-37.105
		c27.772-7.375,44.737,3.707,53.892,15.98c-18.814-13.327-35.962-8.692-53.61-5.42c-40.492,7.508-82.376,39.384-126.758,34.37
		c-20.721-3.095-35.239-23.671-34.045-39.805c0.106-1.434,0.336-2.833,0.697-4.181c2.728-9.562,7.52-13.483,11.766-14.646
		C143.17,10.927,154.603,31.961,139.425,44.484z"/>
	<path id="path2390" fill="#FFFFFF" d="M129.247,51.318c-8.213-7.289-16.687-18.602-24.248-23.606
		C25.512-24.903-15.227,46.179,25.535,66.606c6.29,3.152,19.323,5.044,28.661-7.506c-11.426,8.713-24.104,5.722-29.342,1.216
		c-13.942-11.993-9.053-29.009,7.343-36.781c25.826-9.861,49.152,0.688,69.564,15.316c14.579,8.736,18.32,12.813,30.067,18.151
		c-6.674,0.277-3.168-8.494-9.519-12.61L129.247,51.318L129.247,51.318z"/>
	<path id="path2479" fill="#FFFFFF" d="M496.119,41.2c-5.671,7.631-3.895,18.836,0.952,22.069
		c8.552,5.906,17.899-6.42,13.615-18.683c-4.274-12.623-14.978-21.447-29.548-23.97c-31.61-5.31-94.134,27.407-133.785,37.418
		c-29.456,7.437-47.449-3.738-57.158-16.115c19.955,13.439,38.143,8.765,56.859,5.465c42.947-7.571,87.369-39.715,134.441-34.66
		c21.977,3.122,37.375,23.871,36.108,40.141c-0.112,1.446-0.356,2.856-0.739,4.216c-2.893,9.642-7.976,13.597-12.479,14.77
		C492.146,75.04,480.021,53.829,496.119,41.2z"/>
	<path id="path2481" fill="#FFFFFF" d="M505.146,31.483c8.618,7.231,17.51,18.455,25.442,23.42
		c83.405,52.199,126.152-18.321,83.382-38.587c-6.6-3.127-20.275-5.004-30.073,7.447c11.989-8.644,25.292-5.676,30.788-1.207
		c14.629,11.898,9.499,28.78-7.705,36.49c-27.099,9.783-51.575-0.683-72.993-15.195c-15.298-8.667-19.224-12.711-31.549-18.007
		c7.003-0.275,3.324,8.427,9.987,12.51L505.146,31.483z"/>
</g>
</svg>
