<svg xmlns="http://www.w3.org/2000/svg" width="640" height="83.5" viewBox="0 0 640 83.5"><title>black divider no background</title><title>Layer 1</title><path fill="#FFF" d="M139.425 44.484c5.347-7.567 3.673-18.68-.898-21.885-8.063-5.857-16.876 6.365-12.837 18.526 4.03 12.517 14.122 21.268 27.86 23.77 29.803 5.266 88.753-27.178 126.14-37.105 27.77-7.374 44.736 3.708 53.89 15.98-18.813-13.326-35.96-8.69-53.61-5.42-40.49 7.51-82.375 39.385-126.757 34.37-20.72-3.094-35.24-23.67-34.045-39.804.106-1.434.336-2.833.697-4.18 2.728-9.563 7.52-13.484 11.766-14.647 11.54-3.163 22.973 17.87 7.795 30.394z"/><path fill="#FFF" d="M129.247 51.318c-8.213-7.29-16.687-18.602-24.248-23.606C25.51-24.903-15.228 46.18 25.534 66.606c6.29 3.152 19.323 5.044 28.66-7.506-11.425 8.713-24.103 5.722-29.34 1.216-13.943-11.993-9.054-29.01 7.342-36.78 25.826-9.862 49.152.687 69.564 15.315 14.58 8.737 18.32 12.814 30.068 18.152-6.674.277-3.168-8.494-9.52-12.61l6.94 6.926zM496.12 41.2c-5.672 7.63-3.896 18.836.95 22.07 8.553 5.905 17.9-6.42 13.616-18.684-4.274-12.623-14.978-21.447-29.548-23.97-31.61-5.31-94.134 27.407-133.785 37.418-29.456 7.437-47.45-3.738-57.158-16.115 19.955 13.438 38.143 8.764 56.86 5.464 42.946-7.57 87.368-39.715 134.44-34.66 21.977 3.122 37.375 23.87 36.108 40.14-.112 1.447-.356 2.857-.74 4.217-2.892 9.643-7.975 13.598-12.478 14.77-12.24 3.19-24.364-18.02-8.266-30.65z"/><path fill="#FFF" d="M505.146 31.483c8.618 7.23 17.51 18.455 25.442 23.42 83.405 52.2 126.152-18.32 83.382-38.587-6.6-3.127-20.275-5.004-30.073 7.447 11.99-8.644 25.292-5.676 30.788-1.207 14.63 11.898 9.5 28.78-7.705 36.49-27.1 9.783-51.575-.683-72.993-15.195-15.298-8.666-19.224-12.71-31.55-18.006 7.004-.275 3.325 8.427 9.988 12.51l-7.28-6.87z"/></svg>